<?xml version="1.0" standalone="no"?>
<!DOCTYPE svg PUBLIC "-//W3C//DTD SVG 20010904//EN"
 "http://www.w3.org/TR/2001/REC-SVG-20010904/DTD/svg10.dtd">
<svg version="1.0" xmlns="http://www.w3.org/2000/svg"
 width="900.000000pt" height="900.000000pt" viewBox="0 0 900.000000 900.000000"
 preserveAspectRatio="xMidYMid meet">
<metadata>
Created by potrace 1.14, written by Peter Selinger 2001-2017
</metadata>
<g transform="translate(0.000000,900.000000) scale(0.100000,-0.100000)"
fill="#000000" stroke="none">
<path d="M0 4500 l0 -4500 4500 0 4500 0 0 4500 0 4500 -4500 0 -4500 0 0
-4500z m5458 2058 c107 -255 331 -794 499 -1198 168 -404 309 -742 314 -752 5
-11 3 -21 -8 -30 -10 -8 -14 -8 -10 -1 4 6 4 14 -1 17 -4 2 -8 -6 -8 -19 0
-13 3 -22 7 -19 13 8 3 -26 -11 -39 -12 -10 -12 -9 -2 4 9 12 9 16 -2 16 -8 0
-12 -7 -11 -16 2 -9 4 -16 5 -16 1 0 3 -12 4 -26 2 -16 -2 -26 -10 -26 -9 0
-11 4 -4 12 7 8 5 12 -3 12 -7 0 -13 -11 -13 -23 0 -12 3 -21 7 -18 13 8 3
-26 -11 -39 -12 -10 -12 -9 -2 4 9 12 9 16 -2 16 -8 0 -12 -7 -11 -16 2 -9 4
-16 5 -16 1 0 3 -12 4 -26 2 -16 -2 -26 -10 -26 -9 0 -11 4 -4 12 7 8 5 12 -3
12 -7 0 -13 -11 -13 -23 0 -12 3 -21 7 -18 13 8 3 -26 -11 -39 -12 -10 -12 -9
-2 4 9 12 9 16 -2 16 -8 0 -12 -7 -11 -16 2 -9 4 -16 5 -16 1 0 3 -12 4 -26 2
-16 -2 -26 -10 -26 -9 0 -11 4 -4 12 7 8 5 12 -4 12 -8 0 -12 -10 -10 -26 1
-14 3 -26 4 -26 1 0 3 -8 5 -18 2 -9 -1 -15 -6 -11 -5 3 -6 11 -3 17 5 8 3 8
-6 0 -14 -13 -24 -46 -11 -39 4 3 7 -6 7 -18 0 -12 -6 -23 -13 -23 -8 0 -10 4
-3 12 7 8 5 12 -4 12 -8 0 -12 -10 -10 -26 1 -14 3 -26 4 -26 1 0 3 -8 5 -18
2 -9 -1 -15 -6 -11 -5 3 -6 10 -3 16 4 6 2 8 -4 5 -5 -4 -8 -17 -4 -29 4 -16
2 -19 -8 -13 -10 6 -11 4 -4 -6 12 -20 14 -40 3 -33 -5 3 -6 11 -2 17 4 8 1 7
-9 -1 -9 -7 -15 -22 -13 -32 2 -11 0 -22 -5 -25 -4 -3 -6 -15 -2 -27 4 -16 2
-19 -8 -13 -10 6 -11 4 -4 -6 12 -20 14 -40 3 -33 -5 3 -6 11 -2 17 5 8 2 8
-9 0 -16 -14 -18 -49 -4 -72 6 -10 5 -12 -2 -7 -7 4 -12 1 -12 -9 0 -10 -5
-13 -12 -9 -7 5 -8 3 -2 -7 13 -21 12 -58 -1 -69 -8 -7 -12 -5 -12 5 0 8 3 12
7 10 3 -2 6 7 6 20 0 22 -9 25 -12 4 -1 -5 -3 -11 -4 -14 -7 -14 -5 -31 4 -44
8 -11 8 -13 -1 -7 -8 4 -13 1 -13 -9 0 -9 -4 -14 -8 -11 -5 3 -9 -1 -9 -9 0
-8 3 -12 7 -10 11 7 5 -44 -6 -55 -7 -7 -11 -6 -11 4 0 8 3 13 7 11 4 -2 7 2
7 10 0 11 -4 12 -13 4 -13 -11 -13 -26 0 -48 6 -10 5 -12 -2 -7 -7 4 -12 1
-12 -9 0 -9 -4 -14 -9 -11 -5 4 -8 -2 -6 -11 2 -10 4 -18 5 -18 1 0 3 -12 4
-26 2 -16 -2 -26 -10 -26 -9 0 -11 4 -4 12 7 8 5 12 -3 12 -7 0 -13 -11 -13
-23 0 -12 3 -21 7 -18 13 8 3 -26 -11 -39 -12 -10 -12 -9 -2 4 9 12 9 16 -1
16 -7 0 -13 -11 -13 -23 0 -12 3 -21 6 -19 3 2 6 -7 6 -19 0 -12 -6 -23 -13
-23 -8 0 -10 4 -3 12 7 8 5 12 -4 12 -13 0 -16 -34 -3 -53 4 -7 -1 -18 -11
-25 -16 -13 -16 -12 -2 6 11 16 11 17 0 8 -14 -13 -24 -47 -11 -39 4 3 7 -6 7
-18 0 -12 -6 -23 -13 -23 -8 0 -10 4 -3 12 7 8 5 12 -4 12 -8 0 -12 -10 -10
-26 1 -14 3 -26 4 -26 1 0 3 -8 5 -18 2 -9 -1 -15 -6 -11 -5 3 -6 11 -2 17 4
8 1 7 -9 -1 -9 -7 -15 -21 -13 -30 2 -9 4 -17 5 -17 1 0 3 -8 5 -18 2 -9 -1
-15 -6 -11 -5 3 -6 11 -2 17 4 8 1 7 -9 -1 -9 -7 -15 -21 -13 -30 2 -9 4 -17
5 -17 1 0 3 -8 5 -18 2 -9 -1 -15 -6 -11 -5 3 -6 11 -2 17 4 8 1 7 -9 -1 -9
-7 -15 -21 -13 -30 2 -9 4 -17 5 -17 1 0 3 -8 5 -18 2 -9 -1 -15 -6 -11 -5 3
-6 11 -2 17 4 8 1 7 -9 -1 -9 -7 -15 -21 -13 -30 2 -9 4 -17 5 -17 1 0 3 -8 5
-18 2 -9 -1 -15 -6 -11 -5 3 -6 10 -3 16 4 7 2 8 -5 4 -6 -4 -9 -11 -6 -16 3
-5 1 -11 -5 -15 -6 -4 -7 -12 -3 -18 12 -20 10 -54 -3 -54 -7 0 -10 5 -6 11 9
15 12 39 4 31 -4 -4 -8 -11 -8 -16 -1 -5 -2 -10 -4 -11 -6 -8 -7 -37 -1 -33 4
2 8 -2 8 -10 0 -8 -4 -12 -9 -9 -4 3 -8 -2 -8 -11 0 -10 -5 -13 -12 -9 -7 5
-8 3 -2 -7 13 -22 12 -58 -2 -70 -8 -6 -11 -16 -7 -22 3 -6 1 -7 -6 -3 -6 4
-9 11 -6 16 3 4 1 10 -3 12 -8 3 -195 443 -848 2001 -158 378 -291 684 -295
680 -3 -5 -77 -177 -164 -383 -86 -206 -160 -377 -163 -380 -4 -3 -9 -14 -10
-25 -4 -24 -18 -40 -35 -40 -7 -1 -11 -6 -10 -11 1 -6 -4 -11 -12 -11 -8 0
-13 5 -12 11 1 6 -12 11 -30 10 -18 0 -31 4 -30 10 1 6 -4 10 -11 8 -6 -1 -11
1 -10 5 2 5 -1 8 -7 8 -5 0 -9 -3 -8 -6 1 -3 -4 -6 -12 -6 -8 0 -13 3 -12 6 1
3 -2 6 -8 6 -5 0 -9 -3 -8 -6 1 -3 -4 -6 -12 -6 -8 0 -13 3 -12 6 1 3 -2 6 -8
6 -5 0 -9 -3 -8 -6 1 -3 -4 -6 -12 -6 -8 0 -13 5 -12 11 1 6 -4 10 -11 8 -6
-1 -11 4 -10 10 2 7 -3 12 -10 10 -6 -1 -11 2 -10 7 2 5 -1 8 -7 7 -5 0 -9 -4
-8 -7 1 -3 -4 -6 -12 -6 -8 0 -13 3 -12 6 1 3 -2 6 -8 6 -5 0 -9 -3 -8 -6 1
-3 -4 -6 -12 -6 -8 0 -13 3 -12 6 1 3 -2 6 -8 6 -5 0 -9 -3 -8 -6 1 -3 -4 -6
-12 -6 -8 0 -13 5 -12 11 1 6 -4 10 -11 8 -6 -1 -11 4 -10 10 2 7 -3 12 -10
10 -6 -1 -11 1 -10 5 2 5 -1 8 -7 8 -5 0 -9 -3 -8 -6 1 -3 -4 -6 -12 -6 -8 0
-13 3 -12 6 1 3 -2 7 -8 7 -5 1 -9 -1 -8 -5 1 -4 -4 -8 -12 -8 -8 0 -13 4 -12
8 1 4 -2 6 -8 5 -5 0 -9 -4 -8 -7 1 -3 -4 -6 -12 -6 -8 0 -13 5 -12 11 1 6 -4
10 -11 8 -6 -1 -11 1 -10 5 2 5 -1 8 -7 8 -5 0 -9 -3 -8 -6 1 -3 -4 -6 -12 -6
-8 0 -13 5 -12 11 1 6 -4 10 -11 8 -6 -1 -11 1 -10 5 2 5 -1 8 -7 8 -5 0 -9
-3 -8 -6 1 -3 -4 -6 -12 -6 -8 0 -13 3 -12 6 1 3 -2 6 -8 6 -5 0 -9 -3 -8 -6
1 -3 -4 -6 -12 -6 -8 0 -13 3 -12 6 1 3 -2 6 -8 6 -5 0 -9 -3 -8 -6 1 -3 -4
-6 -11 -6 -7 0 -13 6 -13 13 0 7 3 12 6 11 3 -1 6 3 6 8 0 6 -3 9 -8 7 -4 -1
-6 1 -5 5 2 5 -1 8 -7 8 -5 0 -9 -3 -8 -6 1 -3 -4 -6 -12 -6 -8 0 -13 3 -12 6
1 3 -2 6 -8 6 -5 0 -9 -3 -8 -6 1 -3 -4 -6 -12 -6 -8 0 -13 3 -12 6 1 3 -2 6
-8 6 -5 0 -9 -3 -8 -6 1 -3 -4 -6 -12 -6 -8 0 -13 5 -12 11 1 6 -4 10 -11 8
-6 -1 -11 1 -10 5 2 5 -1 8 -7 8 -5 0 -9 -3 -8 -6 1 -3 -4 -6 -12 -6 -8 0 -13
5 -12 11 1 6 -4 10 -11 8 -6 -1 -11 1 -10 5 2 5 -1 8 -7 8 -5 0 -9 -3 -8 -6 1
-3 -4 -6 -12 -6 -8 0 -13 3 -12 6 1 3 -2 6 -8 6 -5 0 -9 -3 -8 -6 1 -3 -4 -6
-12 -6 -8 0 -13 3 -12 6 1 3 -2 6 -8 6 -5 0 -9 -3 -8 -6 1 -3 -4 -6 -12 -6 -8
0 -13 5 -12 11 1 6 -4 10 -11 8 -6 -1 -11 1 -10 5 2 5 -1 8 -7 8 -5 0 -9 -3
-8 -6 1 -3 -4 -6 -12 -6 -8 0 -13 5 -12 11 1 6 -4 10 -11 8 -6 -1 -11 1 -10 5
2 5 -1 8 -7 8 -5 0 -9 -3 -8 -6 1 -3 -4 -6 -12 -6 -8 0 -13 3 -12 6 1 3 -2 6
-8 6 -5 0 -9 -3 -8 -6 1 -3 -4 -6 -12 -6 -8 0 -13 3 -12 6 1 3 -2 6 -8 6 -5 0
-9 -3 -8 -6 1 -3 -4 -6 -11 -6 -7 0 -13 6 -13 13 0 7 3 12 6 11 3 -1 6 3 6 8
0 6 -3 9 -7 8 -3 -1 -5 5 -3 15 2 9 4 17 5 17 1 0 3 9 6 20 2 11 122 304 267
650 145 347 342 818 438 1047 l174 418 760 0 760 0 193 -462z m607 -2618 c-8
-9 -12 -20 -8 -25 5 -4 2 -5 -5 -1 -9 6 -10 11 -3 20 6 7 9 15 6 18 -3 2 2 5
10 5 13 0 13 -2 0 -17z m-25 -105 c0 -2 -6 -8 -13 -14 -10 -8 -14 -7 -14 2 0
8 6 14 14 14 7 0 13 -1 13 -2z"/>
<path d="M2883 4914 c4 -7 0 -17 -8 -24 -14 -12 -13 -16 6 -36 16 -17 26 -21
35 -13 8 7 14 7 19 -1 5 -8 11 -8 19 -1 9 8 18 5 31 -9 13 -14 22 -17 30 -10
8 7 17 4 30 -10 13 -14 22 -17 31 -9 8 7 14 7 19 -1 5 -8 10 -8 20 0 10 8 15
8 20 0 5 -8 11 -8 19 -1 9 8 18 5 31 -9 13 -14 22 -17 30 -10 8 7 17 4 30 -10
13 -14 22 -17 31 -9 8 7 14 7 19 -1 5 -8 10 -8 20 0 10 8 15 8 20 0 5 -8 11
-8 19 -1 9 8 20 3 41 -19 21 -22 32 -27 41 -19 8 7 14 7 19 -1 5 -8 11 -8 19
-1 9 8 18 5 31 -9 13 -14 22 -17 30 -10 8 7 17 4 30 -10 13 -14 22 -17 31 -9
8 7 14 7 19 -1 5 -8 10 -8 20 0 10 8 15 8 20 0 5 -8 11 -8 19 -1 9 8 20 3 41
-19 21 -22 32 -27 41 -19 8 7 14 7 19 -1 5 -8 10 -8 20 0 10 8 15 8 20 0 5 -8
11 -8 19 -1 9 8 20 3 41 -19 21 -22 32 -27 41 -19 8 7 14 7 19 -1 5 -8 10 -8
20 0 10 8 15 8 20 0 5 -8 11 -8 19 -1 9 8 19 4 35 -13 13 -14 31 -23 42 -21
10 2 21 -1 25 -6 3 -6 12 -5 21 3 9 7 18 12 21 10 3 -1 7 4 8 12 1 9 -3 14 -9
13 -7 -1 -11 3 -10 9 1 6 -4 11 -12 11 -8 0 -13 -3 -12 -6 1 -3 -2 -6 -8 -6
-5 0 -9 3 -8 7 2 5 -3 7 -10 5 -6 -1 -11 3 -10 9 1 6 -4 11 -12 11 -8 0 -13
-3 -12 -6 1 -3 -3 -6 -8 -6 -5 0 -9 3 -8 6 1 3 -4 6 -12 6 -8 0 -13 -3 -12 -6
1 -3 -2 -6 -8 -6 -5 0 -9 3 -8 7 2 5 -3 7 -10 5 -6 -1 -11 3 -10 9 1 6 -4 11
-12 11 -8 0 -13 -3 -12 -6 1 -3 -3 -6 -8 -6 -5 0 -9 4 -7 10 2 5 0 7 -4 2 -4
-4 -16 1 -26 10 -11 10 -18 13 -16 8 2 -6 -1 -10 -7 -10 -5 0 -9 3 -8 6 1 3
-4 6 -12 6 -8 0 -13 -3 -12 -6 1 -3 -2 -6 -8 -6 -5 0 -9 3 -8 6 1 3 -4 6 -12
6 -8 0 -13 -3 -12 -6 1 -3 -3 -6 -8 -6 -5 0 -9 3 -8 7 2 5 -3 7 -10 5 -6 -1
-11 5 -9 13 2 8 0 12 -4 7 -4 -4 -16 1 -26 10 -11 10 -18 13 -16 8 2 -6 -2
-10 -7 -10 -5 0 -9 3 -8 6 1 3 -4 6 -12 6 -8 0 -13 -4 -12 -8 1 -4 -2 -7 -8
-7 -5 0 -9 4 -7 9 1 5 -4 8 -10 7 -7 -2 -12 2 -11 8 1 6 -4 11 -12 11 -8 0
-13 -3 -12 -6 1 -3 -2 -6 -8 -6 -5 0 -9 3 -8 6 1 3 -4 6 -12 6 -8 0 -13 -3
-12 -6 1 -3 -2 -6 -8 -6 -5 0 -9 3 -7 8 1 4 -4 6 -10 5 -7 -2 -12 2 -11 8 1 6
-4 11 -12 11 -8 0 -13 -3 -12 -6 1 -3 -2 -6 -8 -6 -5 0 -9 3 -8 6 1 3 -4 6
-12 6 -8 0 -13 -3 -12 -6 1 -3 -2 -6 -8 -6 -5 0 -9 3 -7 8 1 4 -4 6 -10 5 -7
-2 -12 2 -11 8 1 6 -4 11 -12 11 -8 0 -13 -3 -12 -6 1 -3 -2 -7 -8 -7 -5 -1
-8 3 -7 10 2 6 0 8 -4 3 -4 -4 -16 1 -26 10 -11 10 -18 12 -16 6 2 -6 -1 -11
-7 -11 -5 0 -9 3 -8 7 1 4 -4 8 -12 8 -8 0 -13 -4 -12 -8 1 -4 -2 -7 -8 -7 -5
0 -9 3 -8 7 1 4 -4 8 -12 8 -8 0 -13 -3 -12 -6 1 -3 -2 -6 -8 -6 -5 0 -9 3 -8
7 2 5 -3 7 -10 5 -6 -1 -11 4 -10 10 2 7 -3 12 -10 10 -6 -1 -11 3 -10 9 1 6
-4 11 -12 11 -8 0 -13 -3 -12 -6 1 -3 -2 -6 -8 -6 -5 0 -9 3 -8 6 1 3 -4 6
-12 6 -8 0 -13 -3 -12 -6 1 -3 -2 -6 -8 -6 -5 0 -9 3 -8 7 2 5 -3 7 -10 5 -6
-1 -11 3 -10 9 1 6 -4 11 -12 11 -8 0 -13 -3 -12 -6 1 -3 -2 -6 -8 -6 -5 0 -8
5 -7 10 2 5 0 7 -4 2 -4 -4 -16 1 -26 10 -11 10 -18 12 -16 6 2 -6 -1 -11 -7
-11 -5 0 -9 3 -8 7 1 4 -4 8 -12 8 -8 0 -13 -4 -12 -8 1 -4 -2 -7 -8 -7 -5 0
-9 3 -8 7 1 4 -4 8 -12 8 -8 0 -13 -4 -12 -8 1 -4 -2 -7 -8 -7 -5 0 -9 4 -7 9
1 5 -4 8 -10 7 -7 -2 -11 4 -10 12 2 8 0 12 -4 7 -4 -4 -16 1 -27 10 -11 10
-17 13 -14 7z m43 -46 c16 -18 22 -27 12 -20 -12 9 -18 10 -23 2 -5 -8 -13 -6
-26 6 -14 13 -16 20 -8 31 14 17 10 18 45 -19z m79 -18 c5 8 10 8 20 0 10 -8
15 -8 20 0 5 8 14 5 29 -9 15 -14 25 -18 32 -11 7 7 17 3 30 -12 13 -16 14
-19 2 -10 -11 9 -18 10 -23 2 -4 -7 -11 -8 -18 -2 -7 5 -20 8 -29 7 -10 -2
-16 2 -15 8 1 6 -12 11 -30 12 -18 0 -38 7 -45 15 -11 12 -11 12 4 2 11 -9 18
-10 23 -2z m200 -40 c8 7 21 -1 41 -23 23 -26 24 -28 3 -10 -17 16 -28 20 -35
13 -7 -7 -17 -3 -29 12 -11 13 -13 17 -5 11 9 -8 18 -9 25 -3z m221 -60 c7 7
17 3 29 -12 11 -13 13 -17 5 -11 -9 8 -18 9 -25 3 -8 -7 -21 1 -41 23 -23 26
-24 28 -3 10 17 -16 28 -20 35 -13z m99 -20 c5 8 15 5 30 -10 16 -15 25 -18
30 -10 5 8 10 9 18 1 7 -7 15 -7 22 -1 8 7 18 3 31 -12 13 -16 14 -19 2 -10
-11 9 -18 10 -23 2 -5 -8 -10 -8 -20 0 -10 8 -15 8 -20 0 -5 -8 -14 -5 -29 8
-11 11 -29 18 -38 17 -9 -2 -23 4 -30 13 -11 15 -11 15 4 4 12 -9 18 -10 23
-2z m200 -40 c8 7 21 -1 41 -23 16 -17 22 -26 15 -20 -10 8 -19 9 -26 3 -8 -7
-21 1 -41 23 -16 17 -22 26 -15 20 10 -8 19 -9 26 -3z m160 -40 c5 8 14 5 29
-9 15 -14 25 -18 32 -11 7 7 17 3 30 -12 13 -16 14 -19 2 -10 -11 9 -18 10
-23 2 -4 -7 -11 -8 -18 -2 -7 5 -20 8 -29 7 -10 -2 -16 2 -15 8 1 6 -3 11 -10
12 -7 0 -18 7 -25 15 -11 12 -11 12 4 2 12 -10 18 -10 23 -2z m160 -40 c5 8
14 5 29 -9 15 -14 25 -18 32 -11 8 8 14 7 22 -3 9 -11 3 -13 -33 -12 -34 0
-50 6 -67 25 -13 13 -16 18 -6 11 12 -9 18 -9 23 -1z"/>
<path d="M2886 4882 c-3 -5 1 -15 8 -21 11 -10 14 -9 12 3 -3 21 -13 29 -20
18z"/>
<path d="M3726 4682 c-3 -5 1 -15 8 -21 11 -10 14 -9 12 3 -3 21 -13 29 -20
18z"/>
<path d="M4045 4600 c-3 -5 -5 -10 -3 -11 33 -8 38 -7 27 7 -14 17 -16 17 -24
4z"/>
<path d="M5655 2751 c-3 -5 -2 -12 3 -15 5 -3 9 1 9 9 0 17 -3 19 -12 6z"/>
<path d="M5646 2708 c3 -5 10 -6 15 -3 13 9 11 12 -6 12 -8 0 -12 -4 -9 -9z"/>
</g>
</svg>
