<svg xmlns="http://www.w3.org/2000/svg" width="90" height="90" viewBox="0 0 90 90">
  <g id="icon-meditation-2" transform="translate(550 -3022)">
    <rect id="Rectangle_728" data-name="Rectangle 728" width="90" height="90" transform="translate(-550 3022)" fill="none"/>
    <g id="Group_273" data-name="Group 273" transform="translate(21876.207 -8621.273)">
      <circle id="Ellipse_55" data-name="Ellipse 55" cx="13.591" cy="13.591" r="13.591" transform="translate(-22394.74 11653.273)" fill="none" stroke="#de9289" stroke-miterlimit="10" stroke-width="4"/>
      <path id="Path_99" data-name="Path 99" d="M539.754,206.7l-1.219,11.67a6.35,6.35,0,0,1-4.4,5.088l-15.86,4.877a3.541,3.541,0,0,1-4.584-3.382V222.06c0-15.482,11.681-29,27.127-29.994a29.061,29.061,0,0,1,31,29v3.89a3.538,3.538,0,0,1-4.58,3.382l-15.779-4.852a6.348,6.348,0,0,1-4.423-5.209l-1.284-11.831" transform="translate(-22923.898 11488.778)" fill="none" stroke="#de9289" stroke-miterlimit="10" stroke-width="4"/>
    </g>
  </g>
</svg>
