<svg xmlns="http://www.w3.org/2000/svg" width="54" height="54" viewBox="0 0 54 54">
  <g id="Group_672" data-name="Group 672" transform="translate(15415 -5086)">
    <g id="Ellipse_26" data-name="Ellipse 26" transform="translate(-15415 5086)" fill="#000000" stroke="none">
      <circle cx="27" cy="27" r="27" fill="#000000" opacity="0.2" stroke="none"/>
    </g>
    <g id="Group_524" data-name="Group 524" transform="translate(-15399.989 5100.722)">
      <path id="Path_78" data-name="Path 78" d="M259.337,1337l-9.962-.019a7.282,7.282,0,0,1-7.214-7.333l.017-9.777a7.282,7.282,0,0,1,7.241-7.305l9.962.017a7.285,7.285,0,0,1,7.214,7.333l-.019,9.777A7.282,7.282,0,0,1,259.337,1337Zm-9.921-22.388a5.245,5.245,0,0,0-5.215,5.262l-.019,9.777a5.246,5.246,0,0,0,5.2,5.283l9.962.017a5.245,5.245,0,0,0,5.215-5.262l.017-9.777a5.242,5.242,0,0,0-5.195-5.281Zm4.951,16.244a6.074,6.074,0,1,1,6.007-6.062A6.045,6.045,0,0,1,254.367,1330.861Zm.019-10.1a4.026,4.026,0,1,0,3.967,4.033A4.006,4.006,0,0,0,254.386,1320.76Zm6.54-4a1.57,1.57,0,1,0,1.547,1.571A1.56,1.56,0,0,0,260.926,1316.76Z" transform="translate(-242.161 -1312.57)" fill="#F1B398"/>
    </g>
  </g>
</svg>
