<svg xmlns="http://www.w3.org/2000/svg" width="90" height="90" viewBox="0 0 90 90">
  <g id="icon-webinar-2" transform="translate(550 -3149)">
    <rect id="Rectangle_726" data-name="Rectangle 726" width="90" height="90" transform="translate(-550 3149)" fill="none"/>
    <g id="Group_271" data-name="Group 271" transform="translate(21590.051 -8492.13)">
      <g id="Group_242" data-name="Group 242" transform="translate(-22135.051 11656.13)">
        <g id="Group_241" data-name="Group 241">
          <circle id="Ellipse_51" data-name="Ellipse 51" cx="10.192" cy="10.192" r="10.192" transform="translate(30.209 13.623)" fill="none" stroke="#c8777a" stroke-miterlimit="10" stroke-width="4"/>
          <path id="Path_94" data-name="Path 94" d="M560.046,219.658v-7.852a17.154,17.154,0,0,1,17.1-17.1h0a17.156,17.156,0,0,1,17.1,17.1v7.852" transform="translate(-536.748 -160.414)" fill="none" stroke="#c8777a" stroke-miterlimit="10" stroke-width="4"/>
          <circle id="Ellipse_52" data-name="Ellipse 52" cx="7.742" cy="7.742" r="7.742" transform="translate(59.939 22.809)" fill="none" stroke="#c8777a" stroke-miterlimit="10" stroke-width="4"/>
          <path id="Path_95" data-name="Path 95" d="M585.453,213.985v-5.17a13.03,13.03,0,0,0-12.993-12.993h0" transform="translate(-504.777 -157.527)" fill="none" stroke="#c8777a" stroke-miterlimit="10" stroke-width="4"/>
          <circle id="Ellipse_53" data-name="Ellipse 53" cx="7.742" cy="7.742" r="7.742" transform="translate(5.251 22.809)" fill="none" stroke="#c8777a" stroke-miterlimit="10" stroke-width="4"/>
          <path id="Path_96" data-name="Path 96" d="M553.53,213.985v-5.17a13.03,13.03,0,0,1,12.993-12.993h0" transform="translate(-553.53 -157.527)" fill="none" stroke="#c8777a" stroke-miterlimit="10" stroke-width="4"/>
          <path id="Path_97" data-name="Path 97" d="M608.592,197.061V185.112H557.717v11.949" transform="translate(-542.748 -185.112)" fill="none" stroke="#c8777a" stroke-miterlimit="10" stroke-width="4"/>
        </g>
      </g>
    </g>
  </g>
</svg>
