<svg xmlns="http://www.w3.org/2000/svg" xmlns:xlink="http://www.w3.org/1999/xlink" viewBox="0 0 153.448 42.124">
  <defs>
    <linearGradient id="a" x1="0.33" y1="1.032" x2="0.98" y2="-0.999" gradientUnits="objectBoundingBox">
      <stop offset="0.001" stop-color="#d76f78"/>
      <stop offset="1" stop-color="#ffd4a8"/>
    </linearGradient>
    <linearGradient id="b" x1="0.929" y1="0.601" x2="0.106" y2="0.407" xlink:href="#a"/>
  </defs>
  <g data-name="Group 725">
    <path data-name="Path 184" d="M136.161 42.124H0V-.001h153.448Z" fill="#323436"/>
    <path data-name="Path 226" d="M41.697 15.807v6.748a2.116 2.116 0 0 1-.35 1.512.985.985 0 0 1-.7.266 1.51 1.51 0 0 1-1.064-.518l-.574.812a2.118 2.118 0 0 0 1.666.686 1.918 1.918 0 0 0 1.484-.588 3.054 3.054 0 0 0 .574-2.2v-6.72Zm12 9.506a4.767 4.767 0 0 0 4.858-4.83 4.767 4.767 0 0 0-4.858-4.83 4.767 4.767 0 0 0-4.862 4.83 4.767 4.767 0 0 0 4.86 4.83Zm0-8.68a3.809 3.809 0 0 1 3.794 3.85 3.809 3.809 0 0 1-3.796 3.85 3.809 3.809 0 0 1-3.794-3.85 3.809 3.809 0 0 1 3.794-3.85Zm12-.826h-1.036v6.006a3.608 3.608 0 0 0 .588 2.24 3.3 3.3 0 0 0 2.726 1.26 3.3 3.3 0 0 0 2.73-1.26 3.608 3.608 0 0 0 .588-2.24v-6.006h-1.036v5.726a2.66 2.66 0 0 1-.742 2.268 2.593 2.593 0 0 1-1.54.532 2.593 2.593 0 0 1-1.54-.532 2.66 2.66 0 0 1-.742-2.268Zm12.208 0v9.338h1.03v-4.088h.266l2.844 4.088h1.26l-2.97-4.172a2.453 2.453 0 0 0 2.354-2.576 2.437 2.437 0 0 0-1.022-2.072 4.1 4.1 0 0 0-2.268-.518Zm1.036.98h.63a2.664 2.664 0 0 1 1.344.266 1.453 1.453 0 0 1 .738 1.372c0 1.092-.77 1.708-2.058 1.708h-.66Zm11.224 8.358v-7.21l7.28 7.63v-9.758h-1.036v7.238l-7.28-7.63v9.73Zm18.732-9.338h-4.844v9.338h4.844v-.98h-3.808v-3.626h3.7v-.98h-3.7v-2.772h3.808Zm8.078 9.338h1.036v-4.018l3.094-5.32h-1.2l-2.412 4.172-2.38-4.172h-1.2l3.066 5.32Z" fill="#fff"/>
    <g data-name="Group 458">
      <path data-name="Path 185" d="M850.814 455.527H846.7l5.463-13.027h4.1Z" transform="translate(-830.735 -428.497)" fill="url(#a)"/>
      <path data-name="Path 186" d="M931.5 442.5h4.1l5.463 13.027h-4.113Z" transform="translate(-909.844 -428.497)" fill="url(#b)"/>
    </g>
  </g>
</svg>