<svg xmlns="http://www.w3.org/2000/svg" x="0px" y="0px" viewBox="0 0 264.7 171.3" style="enable-background:new 0 0 264.7 171.3" xml:space="preserve">
  <path d="M262.8 66.6c-5.4-17.4-21.4-30.1-40.4-30.5h-2.1c-6.3.2-12.5 1.8-18.1 4.6-6.3 3.1-10.9 7.6-15.4 12.9l-.2.2-12.4 14.5-.1.2s-19.6 22.9-19.6 23c-5.8 6.8-10.9 12.7-20.5 13.2h-2.2c-8.7-.2-16.3-4.7-20.7-11.5l-12 14c2.2 2.7 4.8 5.1 7.7 7.2 6.3 4.6 13.8 7.5 22 8.2h.1c1.1.1 2.3.1 3.5.1 6.3 0 12.3-1.4 17.8-3.8 5.1-2.3 9.7-5.6 13.6-9.6l3-3.6 12.9-15.1s19.6-22.9 19.6-23c5.9-6.8 10.8-12.7 20.5-13.2h2.2c13.7.3 24.8 11.5 24.8 25.2s-10.9 24.8-24.4 25.2h-1.7c-8.6-.2-16.1-4.8-20.5-11.5l-4.2 4.9-17.7 20.7v52.3l17.5-15v-42c.1 0 .1.1.2.1v-.1c6.9 5.1 15.5 8.2 24.7 8.4h1.9c5.9-.2 11.5-1.5 16.6-3.8 4.9-2.2 9.4-5.3 13.1-9.1l.4-.4s.1-.1.1-.2c7.4-7.8 12-18.3 12-29.9-.1-4.3-.8-8.5-2-12.6zm-152.6 1c2.8-3.3 5.4-6.9 8.9-9.5 3.8-2.9 8.6-3.8 13.3-3.8 8.8 0 16.5 4.5 21 11.3l12.1-14.1c-7.9-9.4-19.8-15.4-33.1-15.4-6.7 0-13.4 1.6-19.4 4.6-6.3 3.1-10.9 7.6-15.4 12.9l-8.5 10.2-3.9 4.4L71 84.7c-3.2 3.7-5.6 6.5-5.6 6.5-5.6 6.6-10.7 12.6-20.1 13.4h-2.7c-2.5-.1-4.9-.4-7.1-1.2-.1 0-.3-.1-.4-.1C25.2 100 18 90.6 18 79.5c0-13.9 11.3-25.2 25.3-25.2 8.8 0 16.5 4.5 21.1 11.3l12.1-14.1C68.5 42 56.6 36 43.3 36c-.7 0-1.5 0-2.2.1h-1C17.7 37.7 0 56.4 0 79.3c0 10.6 3.8 20.3 10.1 27.8l-.1.1c2.2 2.7 4.8 5.1 7.7 7.2 6.3 4.6 13.8 7.5 22 8.2h.1c1.1.1 2.3.1 3.5.1 6.3 0 12.3-1.4 17.8-3.8 5.1-2.3 9.7-5.6 13.6-9.6l3-3.6 12.9-15.1 18.8-22.2.8-.8z" style="fill:#de7c00"/>
  <path style="fill:none" d="M0 .1h264.7V11H0z"/>
</svg>